# xmcd
#
# Track frame offsets: 
#        150
#        43318
#        57430
#        93148
#        117171
#        150299
#        170493
#        196266
#
# Disc length: 2975 seconds
#
# Revision: 1
# Processed by: cddbd v1.5.2PL0 Copyright (c) Steve Scherf et al.
# Submitted via: ExactAudioCopy v1.0b3
#
DISCID=5f0b9d08
DTITLE=Mozart - Talich Quartet - The Complete String Quartets CD6
DYEAR=2011
DGENRE=Classical
TTITLE0=String Quartet No.20 in D major, K.499 - Allegretto
TTITLE1=String Quartet No.20 in D major, K.499 - Menuetto, Allegretto 
TTITLE1=Trio
TTITLE2=String Quartet No.20 in D major, K.499 - Adagio
TTITLE3=String Quartet No.20 in D major, K.499 - Allegro
TTITLE4=String Quartet No.21 in D major, K.575 - Allegretto
TTITLE5=String Quartet No.21 in D major, K.575 - Andante
TTITLE6=String Quartet No.21 in D major, K.575 - Menuetto, Allegretto
TTITLE7=String Quartet No.21 in D major, K.575 - Allegretto
EXTD=
EXTT0=
EXTT1=
EXTT2=
EXTT3=
EXTT4=
EXTT5=
EXTT6=
EXTT7=
PLAYORDER=
